<?xml version="1.0" encoding="UTF-8"?>
<svg xmlns="http://www.w3.org/2000/svg" width="200" height="200" viewBox="0 0 108 108">
  <!-- Outer circle — safe container -->
  <circle cx="54" cy="54" r="48" fill="#5B8DB8"/>

  <!-- Open hand (palm up) — welcoming, receiving -->
  <path d="M38,72 Q36,68 36,62 L36,50 Q36,47 38.5,47 Q41,47 41,50 L41,58 L41,48 Q41,45 43.5,45 Q46,45 46,48 L46,60 L46,47 Q46,44 48.5,44 Q51,44 51,47 L51,60 L51,49 Q51,46 53.5,46 Q56,46 56,49 L56,62 Q60,58 63,60 Q66,62 64,65 L58,72 Z" fill="#FFFFFF"/>

  <!-- Heart above hand — compassion, care -->
  <path d="M54,40 C54,40 46,32 46,27 C46,23.13 49.13,20 53,20 C53.97,20 54.88,20.22 55.71,20.6 C56.54,20.22 57.45,20 58.42,20 C62.29,20 65.42,23.13 65.42,27 C65.42,32 57.42,40 57.42,40 Z" fill="#F4A97F"/>

  <!-- Subtle wave arcs — calm, breathing, rhythm -->
  <path d="M30,82 Q42,78 54,82 Q66,86 78,82" fill="none" stroke="#A8D5BA" stroke-width="2.5" stroke-linecap="round"/>
  <path d="M34,88 Q44,85 54,88 Q64,91 74,88" fill="none" stroke="#A8D5BA" stroke-width="1.8" stroke-linecap="round"/>
</svg>